<svg xmlns="http://www.w3.org/2000/svg" width="195.563" height="195.564" viewBox="0 0 195.563 195.564">
  <g id="closeButton" transform="translate(3971.716 -8.284)" fill="#fff">
    <path d="M -3909.28955078125 203.3478240966797 C -3911.822509765625 203.3478240966797 -3914.291259765625 202.8674163818359 -3916.627685546875 201.9199676513672 C -3919.046142578125 200.9391937255859 -3921.216552734375 199.4979705810547 -3923.078125 197.6363372802734 L -3965.504638671875 155.2099456787109 C -3967.3662109375 153.3483123779297 -3968.807373046875 151.1780700683594 -3969.788330078125 148.7594604492188 C -3970.735595703125 146.423095703125 -3971.216064453125 143.9541931152344 -3971.216064453125 141.4213409423828 C -3971.216064453125 138.8884887695313 -3970.735595703125 136.4195861816406 -3969.788330078125 134.0832366943359 C -3968.807373046875 131.6646423339844 -3967.3662109375 129.494384765625 -3965.504638671875 127.6327667236328 L -3944.29150390625 106.4195709228516 L -3943.93798828125 106.0660171508789 L -3944.29150390625 105.7124633789063 L -3965.504638671875 84.499267578125 C -3967.3662109375 82.63764190673828 -3968.807373046875 80.46739196777344 -3969.788330078125 78.04878997802734 C -3970.735595703125 75.71241760253906 -3971.216064453125 73.24351501464844 -3971.216064453125 70.71067047119141 C -3971.216064453125 68.17781829833984 -3970.735595703125 65.70891571044922 -3969.788330078125 63.37256622314453 C -3968.807373046875 60.9539680480957 -3967.3662109375 58.78371810913086 -3965.504638671875 56.92209243774414 L -3923.078125 14.49569225311279 C -3921.216552734375 12.63406753540039 -3919.046142578125 11.19284248352051 -3916.627685546875 10.21206760406494 C -3914.291259765625 9.264616966247559 -3911.822509765625 8.784241676330566 -3909.28955078125 8.784241676330566 C -3906.756591796875 8.784241676330566 -3904.287841796875 9.264616966247559 -3901.951416015625 10.21206760406494 C -3899.532958984375 11.19284248352051 -3897.362548828125 12.63406753540039 -3895.5009765625 14.49569225311279 L -3874.287841796875 35.70889282226563 L -3873.934326171875 36.06244277954102 L -3873.580810546875 35.70889282226563 L -3852.36767578125 14.49569225311279 C -3850.506103515625 12.63406753540039 -3848.335693359375 11.19284248352051 -3845.917236328125 10.21206760406494 C -3843.580810546875 9.264616966247559 -3841.11181640625 8.784241676330566 -3838.578857421875 8.784241676330566 C -3836.046142578125 8.784241676330566 -3833.5771484375 9.264616966247559 -3831.24072265625 10.21206760406494 C -3828.822265625 11.19284248352051 -3826.65185546875 12.63406753540039 -3824.790283203125 14.49569225311279 L -3782.364013671875 56.92209243774414 C -3780.50244140625 58.78371810913086 -3779.061279296875 60.9539680480957 -3778.080322265625 63.37256622314453 C -3777.133056640625 65.70891571044922 -3776.652587890625 68.17781829833984 -3776.652587890625 70.71067047119141 C -3776.652587890625 73.24351501464844 -3777.133056640625 75.71241760253906 -3778.080322265625 78.04878997802734 C -3779.061279296875 80.46739196777344 -3780.50244140625 82.63764190673828 -3782.364013671875 84.499267578125 L -3803.5771484375 105.7124633789063 L -3803.9306640625 106.0660171508789 L -3803.5771484375 106.4195709228516 L -3782.364013671875 127.6327667236328 C -3780.50244140625 129.494384765625 -3779.061279296875 131.6646423339844 -3778.080322265625 134.0832366943359 C -3777.133056640625 136.4195861816406 -3776.652587890625 138.8884887695313 -3776.652587890625 141.4213409423828 C -3776.652587890625 143.9541931152344 -3777.133056640625 146.423095703125 -3778.080322265625 148.7594604492188 C -3779.061279296875 151.1780700683594 -3780.50244140625 153.3483123779297 -3782.364013671875 155.2099456787109 L -3824.790283203125 197.6363372802734 C -3826.65185546875 199.4979705810547 -3828.822265625 200.9391632080078 -3831.24072265625 201.9199676513672 C -3833.5771484375 202.8673858642578 -3836.0458984375 203.3477935791016 -3838.578857421875 203.3477935791016 C -3841.11181640625 203.3477935791016 -3843.58056640625 202.8673858642578 -3845.9169921875 201.9199676513672 C -3848.335693359375 200.9391632080078 -3850.506103515625 199.4979400634766 -3852.36767578125 197.6363372802734 L -3873.580810546875 176.4231414794922 L -3873.934326171875 176.0695953369141 L -3874.287841796875 176.4231414794922 L -3895.5009765625 197.6363372802734 C -3897.362548828125 199.4979705810547 -3899.532958984375 200.9391937255859 -3901.951416015625 201.9199676513672 C -3904.287841796875 202.8674163818359 -3906.756591796875 203.3478240966797 -3909.28955078125 203.3478240966797 Z" stroke="none"/>
    <path d="M -3909.28955078125 202.8478240966797 C -3906.821533203125 202.8478240966797 -3904.415771484375 202.3797607421875 -3902.139404296875 201.4566345214844 C -3899.783203125 200.5011138916016 -3897.668701171875 199.0968475341797 -3895.8544921875 197.2827911376953 L -3874.641357421875 176.0695953369141 L -3873.934326171875 175.3624725341797 L -3873.227294921875 176.0695953369141 L -3852.01416015625 197.2827911376953 C -3850.199951171875 199.0968170166016 -3848.08544921875 200.5010986328125 -3845.729248046875 201.4566192626953 C -3843.45263671875 202.3797454833984 -3841.047119140625 202.8477935791016 -3838.578857421875 202.8477935791016 C -3836.11083984375 202.8477935791016 -3833.705078125 202.3797454833984 -3831.4287109375 201.4566192626953 C -3829.072509765625 200.5011138916016 -3826.9580078125 199.0968475341797 -3825.143798828125 197.2827911376953 L -3782.717529296875 154.8563995361328 C -3780.903564453125 153.0423431396484 -3779.499267578125 150.9278106689453 -3778.543701171875 148.5715637207031 C -3777.62060546875 146.295166015625 -3777.152587890625 143.8894958496094 -3777.152587890625 141.4213409423828 C -3777.152587890625 138.9531860351563 -3777.62060546875 136.5475158691406 -3778.543701171875 134.2711486816406 C -3779.499267578125 131.9148864746094 -3780.903564453125 129.8003692626953 -3782.717529296875 127.9863204956055 L -3803.9306640625 106.7731170654297 L -3804.637939453125 106.0660171508789 L -3803.9306640625 105.3589172363281 L -3782.717529296875 84.14571380615234 C -3780.903564453125 82.3316650390625 -3779.499267578125 80.21714019775391 -3778.543701171875 77.86089324951172 C -3777.62060546875 75.58449554443359 -3777.152587890625 73.17881774902344 -3777.152587890625 70.71067047119141 C -3777.152587890625 68.24251556396484 -3777.62060546875 65.83684539794922 -3778.543701171875 63.56046676635742 C -3779.499267578125 61.20421600341797 -3780.903564453125 59.08969116210938 -3782.717529296875 57.27564239501953 L -3825.143798828125 14.84924221038818 C -3826.9580078125 13.03521728515625 -3829.072509765625 11.6309175491333 -3831.4287109375 10.67541694641113 C -3833.705078125 9.752291679382324 -3836.11083984375 9.284241676330566 -3838.578857421875 9.284241676330566 C -3841.047119140625 9.284241676330566 -3843.452880859375 9.752291679382324 -3845.729248046875 10.67541694641113 C -3848.08544921875 11.6309175491333 -3850.199951171875 13.03521728515625 -3852.01416015625 14.84924221038818 L -3873.227294921875 36.06244277954102 L -3873.934326171875 36.76956558227539 L -3874.641357421875 36.06244277954102 L -3895.8544921875 14.84924221038818 C -3897.668701171875 13.03519248962402 -3899.783203125 11.6309175491333 -3902.139404296875 10.67541694641113 C -3904.415771484375 9.752291679382324 -3906.8212890625 9.284241676330566 -3909.28955078125 9.284241676330566 C -3911.757568359375 9.284241676330566 -3914.163330078125 9.752291679382324 -3916.439697265625 10.67541694641113 C -3918.7958984375 11.6309175491333 -3920.910400390625 13.03521728515625 -3922.724609375 14.84924221038818 L -3965.151123046875 57.27564239501953 C -3966.965087890625 59.08969116210938 -3968.369384765625 61.20421600341797 -3969.324951171875 63.56046676635742 C -3970.248046875 65.83684539794922 -3970.716064453125 68.24251556396484 -3970.716064453125 70.71067047119141 C -3970.716064453125 73.17881774902344 -3970.248046875 75.58449554443359 -3969.324951171875 77.86089324951172 C -3968.369384765625 80.21714019775391 -3966.965087890625 82.3316650390625 -3965.151123046875 84.14571380615234 L -3943.93798828125 105.3589172363281 L -3943.230712890625 106.0660171508789 L -3943.93798828125 106.7731170654297 L -3965.151123046875 127.9863204956055 C -3966.965087890625 129.8003692626953 -3968.369384765625 131.9148864746094 -3969.324951171875 134.2711486816406 C -3970.248046875 136.5475158691406 -3970.716064453125 138.9531860351563 -3970.716064453125 141.4213409423828 C -3970.716064453125 143.8894958496094 -3970.248046875 146.295166015625 -3969.324951171875 148.5715637207031 C -3968.369384765625 150.9278106689453 -3966.965087890625 153.0423431396484 -3965.151123046875 154.8563995361328 L -3922.724609375 197.2827911376953 C -3920.910400390625 199.0968475341797 -3918.7958984375 200.5011138916016 -3916.439697265625 201.4566345214844 C -3914.163330078125 202.3797454833984 -3911.757568359375 202.8478240966797 -3909.28955078125 202.8478240966797 M -3909.28955078125 203.8478088378906 C -3914.407958984375 203.8478088378906 -3919.5263671875 201.8951721191406 -3923.431640625 197.9898986816406 L -3965.858154296875 155.5634918212891 C -3973.668701171875 147.7529449462891 -3973.668701171875 135.0897369384766 -3965.858154296875 127.2792205810547 L -3944.64501953125 106.0660171508789 L -3965.858154296875 84.85281372070313 C -3973.668701171875 77.04226684570313 -3973.668701171875 64.37906646728516 -3965.858154296875 56.56854248046875 L -3923.431640625 14.1421422958374 C -3919.5263671875 10.23686695098877 -3914.407958984375 8.284229278564453 -3909.28955078125 8.284229278564453 C -3904.171142578125 8.284229278564453 -3899.052734375 10.23686695098877 -3895.1474609375 14.1421422958374 L -3873.934326171875 35.35534286499023 L -3852.72119140625 14.1421422958374 C -3848.81591796875 10.23686695098877 -3843.697509765625 8.284229278564453 -3838.578857421875 8.284229278564453 C -3833.46044921875 8.284229278564453 -3828.342041015625 10.23686695098877 -3824.436767578125 14.1421422958374 L -3782.010498046875 56.56854248046875 C -3774.199951171875 64.37906646728516 -3774.199951171875 77.04226684570313 -3782.010498046875 84.85281372070313 L -3803.2236328125 106.0660171508789 L -3782.010498046875 127.2792205810547 C -3774.199951171875 135.0897369384766 -3774.199951171875 147.7529449462891 -3782.010498046875 155.5634918212891 L -3824.436767578125 197.9898986816406 C -3828.342041015625 201.8951721191406 -3833.46044921875 203.8477935791016 -3838.578857421875 203.8477935791016 C -3843.697265625 203.8477935791016 -3848.81591796875 201.8951721191406 -3852.72119140625 197.9898986816406 L -3873.934326171875 176.7766876220703 L -3895.1474609375 197.9898986816406 C -3899.052734375 201.8951721191406 -3904.171142578125 203.8478088378906 -3909.28955078125 203.8478088378906 Z" stroke="none" fill="#707070"/>
  </g>
</svg>
