<svg xmlns="http://www.w3.org/2000/svg" xmlns:xlink="http://www.w3.org/1999/xlink" width="218" height="218" viewBox="0 0 218 218">
  <defs>
    <filter id="Subtraction_2" x="0" y="0" width="218" height="218" filterUnits="userSpaceOnUse">
      <feOffset dy="8" input="SourceAlpha"/>
      <feGaussianBlur stdDeviation="3" result="blur"/>
      <feFlood flood-opacity="0.161"/>
      <feComposite operator="in" in2="blur"/>
      <feComposite in="SourceGraphic"/>
    </filter>
  </defs>
  <g id="Paper" transform="translate(-391 -439)">
    <g transform="matrix(1, 0, 0, 1, 391, 439)" filter="url(#Subtraction_2)">
      <path id="Subtraction_2-2" data-name="Subtraction 2" d="M-1890,207a99.374,99.374,0,0,1-38.924-7.858,100.015,100.015,0,0,1-16.987-9.22,100.72,100.72,0,0,1-14.8-12.211,100.733,100.733,0,0,1-12.211-14.8,100.019,100.019,0,0,1-9.22-16.986A99.374,99.374,0,0,1-1990,107a99.374,99.374,0,0,1,7.858-38.925,100.019,100.019,0,0,1,9.22-16.986,100.733,100.733,0,0,1,12.211-14.8,100.719,100.719,0,0,1,14.8-12.211,100.015,100.015,0,0,1,16.987-9.22A99.374,99.374,0,0,1-1890,7a99.374,99.374,0,0,1,38.924,7.858,100.011,100.011,0,0,1,16.987,9.22,100.719,100.719,0,0,1,14.8,12.211,100.724,100.724,0,0,1,12.211,14.8,100.019,100.019,0,0,1,9.22,16.986A99.374,99.374,0,0,1-1790,107a99.374,99.374,0,0,1-7.858,38.925,100.019,100.019,0,0,1-9.22,16.986,100.724,100.724,0,0,1-12.211,14.8,100.719,100.719,0,0,1-14.8,12.211,100.011,100.011,0,0,1-16.987,9.22A99.374,99.374,0,0,1-1890,207Zm-17.409-176.616a20.588,20.588,0,0,0-7.581,1.428,21.23,21.23,0,0,0-6.409,3.919,21.6,21.6,0,0,0-4.614,5.9,20.172,20.172,0,0,0-2.271,7.36,17.506,17.506,0,0,0-6.335,2.051,19.078,19.078,0,0,0-5.054,4.065,18.55,18.55,0,0,0-3.37,5.566,18.039,18.039,0,0,0-1.208,6.556v76.318a49.309,49.309,0,0,0,1.794,13.294,50.815,50.815,0,0,0,5.054,11.975,50.073,50.073,0,0,0,7.8,10.108,50.066,50.066,0,0,0,10.107,7.8,50.811,50.811,0,0,0,11.975,5.053,49.3,49.3,0,0,0,13.293,1.795,48.81,48.81,0,0,0,19.043-3.7,52.336,52.336,0,0,0,16.114-10.8l40.283-39.038a19.937,19.937,0,0,0,4.615-6.811,21.423,21.423,0,0,0,1.538-8.057,20.806,20.806,0,0,0-1.648-8.24,21.265,21.265,0,0,0-4.5-6.7,21.268,21.268,0,0,0-6.7-4.5,20.805,20.805,0,0,0-8.24-1.648,20.68,20.68,0,0,0-5.457.733,20.374,20.374,0,0,0-5.017,2.124V61.951a20.241,20.241,0,0,0-1.648-8.02,22.046,22.046,0,0,0-4.468-6.738,21.791,21.791,0,0,0-6.592-4.614,19.181,19.181,0,0,0-8.02-1.722,21.942,21.942,0,0,0-3.076.22,21.153,21.153,0,0,0-7.726-7.836,20.647,20.647,0,0,0-10.584-2.857,22.075,22.075,0,0,0-5.493.7,17.922,17.922,0,0,0-5.054,2.161,21.686,21.686,0,0,0-5.09-2.124A20.645,20.645,0,0,0-1907.409,30.384Zm13.183,152.636a38.41,38.41,0,0,1-15.381-3.113,40.244,40.244,0,0,1-12.524-8.459,40.257,40.257,0,0,1-8.459-12.524,38.41,38.41,0,0,1-3.113-15.381V67.225a7.824,7.824,0,0,1,.623-3.076,7.936,7.936,0,0,1,1.685-2.527,8.044,8.044,0,0,1,2.49-1.684,7.741,7.741,0,0,1,3.112-.623,7.823,7.823,0,0,1,3.076.623,7.514,7.514,0,0,1,2.49,1.684,8.267,8.267,0,0,1,1.648,2.527,7.825,7.825,0,0,1,.623,3.076v34.2a2.554,2.554,0,0,0,.769,1.868,2.554,2.554,0,0,0,1.868.769,2.557,2.557,0,0,0,1.868-.769,2.553,2.553,0,0,0,.769-1.868V42.322a10.973,10.973,0,0,1,5.274-1.391,10.464,10.464,0,0,1,4.1.806,10.42,10.42,0,0,1,3.333,2.234A10.951,10.951,0,0,1-1897.7,47.3a10.065,10.065,0,0,1,.842,4.1v50.025a2.553,2.553,0,0,0,.769,1.868,2.556,2.556,0,0,0,1.867.769,2.554,2.554,0,0,0,1.868-.769,2.554,2.554,0,0,0,.77-1.868V42.322a10.174,10.174,0,0,1,5.273-1.391,10.466,10.466,0,0,1,4.1.806,10.422,10.422,0,0,1,3.332,2.234,10.418,10.418,0,0,1,2.234,3.333,10.457,10.457,0,0,1,.807,4.1v50.025a2.553,2.553,0,0,0,.769,1.868,2.556,2.556,0,0,0,1.867.769,2.557,2.557,0,0,0,1.868-.769,2.556,2.556,0,0,0,.769-1.868V52.869a14.7,14.7,0,0,1,2.563-1.062,9.282,9.282,0,0,1,2.71-.4,10.074,10.074,0,0,1,4.1.842,10.94,10.94,0,0,1,3.332,2.271,10.942,10.942,0,0,1,2.271,3.332,10.074,10.074,0,0,1,.842,4.1v63.208h-18.457a28.34,28.34,0,0,0-11.279,2.271,29.294,29.294,0,0,0-9.192,6.188,29.314,29.314,0,0,0-6.189,9.192,28.349,28.349,0,0,0-2.271,11.28,2.553,2.553,0,0,0,.77,1.867,2.551,2.551,0,0,0,1.867.77,2.554,2.554,0,0,0,1.868-.77,2.554,2.554,0,0,0,.769-1.867,22.847,22.847,0,0,1,1.868-9.192,24.27,24.27,0,0,1,5.09-7.508,24.281,24.281,0,0,1,7.507-5.09,22.862,22.862,0,0,1,9.192-1.868h16.993l15.088-12.744a17.274,17.274,0,0,1,3.406-2.271,9.061,9.061,0,0,1,3.991-.806,10.074,10.074,0,0,1,4.1.842,10.956,10.956,0,0,1,3.332,2.271,10.955,10.955,0,0,1,2.271,3.332,10.076,10.076,0,0,1,.842,4.1,10.365,10.365,0,0,1-.805,3.991,10.461,10.461,0,0,1-2.271,3.406l-40.136,38.965a41.176,41.176,0,0,1-12.744,8.533A38.6,38.6,0,0,1-1894.226,183.02Z" transform="translate(1999 -6)" fill="#fd8912"/>
    </g>
  </g>
</svg>
