<svg xmlns="http://www.w3.org/2000/svg" xmlns:xlink="http://www.w3.org/1999/xlink" width="330.132" height="331.132" viewBox="0 0 330.132 331.132">
  <defs>
    <filter id="playAgain" x="0" y="0" width="330.132" height="331.132" filterUnits="userSpaceOnUse">
      <feOffset dy="10" input="SourceAlpha"/>
      <feGaussianBlur stdDeviation="3" result="blur"/>
      <feFlood flood-opacity="0.161"/>
      <feComposite operator="in" in2="blur"/>
      <feComposite in="SourceGraphic"/>
    </filter>
  </defs>
  <g transform="matrix(1, 0, 0, 1, 0, 0)" filter="url(#playAgain)">
    <path id="playAgain-2" data-name="playAgain" d="M-3803.223,332.843a49.835,49.835,0,0,1-18.815-3.661,49.689,49.689,0,0,1-16.54-10.984l-106.066-106.066a49.688,49.688,0,0,1-10.984-16.54,49.834,49.834,0,0,1-3.661-18.815,49.835,49.835,0,0,1,3.661-18.815,49.687,49.687,0,0,1,10.984-16.54l106.066-106.067a49.687,49.687,0,0,1,16.54-10.983,49.835,49.835,0,0,1,18.815-3.661,49.837,49.837,0,0,1,18.815,3.661,49.687,49.687,0,0,1,16.54,10.983L-3661.8,141.422a49.692,49.692,0,0,1,10.984,16.54,49.835,49.835,0,0,1,3.661,18.815,49.835,49.835,0,0,1-3.661,18.815,49.693,49.693,0,0,1-10.984,16.54L-3767.868,318.2a49.689,49.689,0,0,1-16.54,10.984A49.834,49.834,0,0,1-3803.223,332.843Zm-38.462-183.661a33.793,33.793,0,0,0-12.32,2.14,26.832,26.832,0,0,0-9.36,6.04,26.6,26.6,0,0,0-5.96,9.32,33.217,33.217,0,0,0-2.08,11.94,31.868,31.868,0,0,0,2.16,11.881,26.749,26.749,0,0,0,6.16,9.3,28.24,28.24,0,0,0,9.66,6.081,35.143,35.143,0,0,0,12.66,2.18,33.449,33.449,0,0,0,20-6.2v-22.8h-18.44v5.32a1.728,1.728,0,0,0,.52,1.3,2,2,0,0,0,1.439.5h8.04v11.44a28.91,28.91,0,0,1-5.46,2.12,24.215,24.215,0,0,1-6.339.76,24.021,24.021,0,0,1-8.62-1.48,17.989,17.989,0,0,1-6.58-4.3,19.354,19.354,0,0,1-4.2-6.88,26.932,26.932,0,0,1-1.48-9.221,26.512,26.512,0,0,1,1.4-8.84,19.088,19.088,0,0,1,4-6.74,17.654,17.654,0,0,1,6.26-4.28,21.609,21.609,0,0,1,8.221-1.5,28.245,28.245,0,0,1,5.2.42,22.031,22.031,0,0,1,3.88,1.08,21.555,21.555,0,0,1,2.98,1.42l.648.38,1.811,1.061a3.171,3.171,0,0,0,1.65.54,2.185,2.185,0,0,0,.51-.06,2.678,2.678,0,0,0,1.641-1.24l2.68-4.28a26.521,26.521,0,0,0-3.961-3.04,26.067,26.067,0,0,0-4.72-2.32,32.2,32.2,0,0,0-5.539-1.5A36.529,36.529,0,0,0-3841.686,149.182Zm117.4,15.96,0,0,31.638,40.637a4.328,4.328,0,0,0,1.439,1.26,4.112,4.112,0,0,0,1.841.38h4.76v-57.6h-8.2v37.56c0,.693.02,1.447.06,2.24s.1,1.6.18,2.44l-31.68-40.68a7.483,7.483,0,0,0-.679-.8,2.3,2.3,0,0,0-.68-.48,2.985,2.985,0,0,0-.78-.22,7.426,7.426,0,0,0-1.02-.06h-4.88v57.6h8.24v-37.88c0-.639-.02-1.346-.06-2.1s-.1-1.513-.18-2.3Zm-31.08-15.32v57.6h9.4v-57.6Zm-46.72,42.72h24.8l4.8,12.72a4.049,4.049,0,0,0,1.16,1.54,3.079,3.079,0,0,0,2,.62h7.24l-22.84-57.6h-9.479l-22.84,57.6h7.24a2.993,2.993,0,0,0,2-.681,3.837,3.837,0,0,0,1.119-1.479l4.8-12.72Zm-110.959,0h24.8l4.8,12.72a4.056,4.056,0,0,0,1.16,1.54,3.08,3.08,0,0,0,2,.62h7.241l-22.84-57.6h-9.48l-22.84,57.6h7.241a2.992,2.992,0,0,0,2-.681,3.849,3.849,0,0,0,1.12-1.479l4.8-12.72Zm133.24-6.72h-19.72l7.92-21c.3-.8.618-1.74.96-2.78s.669-2.217.96-3.46a58.551,58.551,0,0,0,1.96,6.2l7.92,21.038Zm-110.96,0h-19.719l7.92-21c.294-.8.617-1.739.96-2.78.347-1.057.67-2.221.959-3.46a58.5,58.5,0,0,0,1.961,6.2l7.919,21.038Z" transform="translate(3968.29 -20.71)" fill="#ffbe7b"/>
  </g>
</svg>
