<svg xmlns="http://www.w3.org/2000/svg" xmlns:xlink="http://www.w3.org/1999/xlink" width="218" height="218" viewBox="0 0 218 218">
  <defs>
    <filter id="Subtraction_3" x="0" y="0" width="218" height="218" filterUnits="userSpaceOnUse">
      <feOffset dy="8" input="SourceAlpha"/>
      <feGaussianBlur stdDeviation="3" result="blur"/>
      <feFlood flood-opacity="0.161"/>
      <feComposite operator="in" in2="blur"/>
      <feComposite in="SourceGraphic"/>
    </filter>
  </defs>
  <g id="Rock" transform="translate(-391 -161)">
    <g transform="matrix(1, 0, 0, 1, 391, 161)" filter="url(#Subtraction_3)">
      <path id="Subtraction_3-2" data-name="Subtraction 3" d="M-1890,219a99.374,99.374,0,0,1-38.924-7.858,100.015,100.015,0,0,1-16.987-9.22,100.716,100.716,0,0,1-14.8-12.211,100.732,100.732,0,0,1-12.211-14.8,100.021,100.021,0,0,1-9.22-16.986A99.374,99.374,0,0,1-1990,119a99.374,99.374,0,0,1,7.858-38.924,100.019,100.019,0,0,1,9.22-16.986,100.725,100.725,0,0,1,12.211-14.8,100.719,100.719,0,0,1,14.8-12.211,100.015,100.015,0,0,1,16.987-9.22A99.374,99.374,0,0,1-1890,19a99.374,99.374,0,0,1,38.924,7.858,100.011,100.011,0,0,1,16.987,9.22,100.719,100.719,0,0,1,14.8,12.211,100.726,100.726,0,0,1,12.211,14.8,100.019,100.019,0,0,1,9.22,16.986A99.374,99.374,0,0,1-1790,119a99.374,99.374,0,0,1-7.858,38.925,100.021,100.021,0,0,1-9.22,16.986,100.724,100.724,0,0,1-12.211,14.8,100.728,100.728,0,0,1-14.8,12.211,100.009,100.009,0,0,1-16.987,9.22A99.374,99.374,0,0,1-1890,219Zm-49.955-146.5a25.439,25.439,0,0,0-10.218,2.088,26.917,26.917,0,0,0-8.349,5.639,26.93,26.93,0,0,0-5.64,8.349,25.453,25.453,0,0,0-2.087,10.218v36.914a25.839,25.839,0,0,0,2.051,10.217,26.54,26.54,0,0,0,5.639,8.386,26.54,26.54,0,0,0,8.386,5.639A25.842,25.842,0,0,0-1939.955,162h2.2a27.376,27.376,0,0,0,4.1,6.519,26.113,26.113,0,0,0,5.64,4.981,26.331,26.331,0,0,0,6.811,3.149,26.483,26.483,0,0,0,7.617,1.1h17.945a26.629,26.629,0,0,0,4.1,6.482,27.466,27.466,0,0,0,5.639,4.981,26.522,26.522,0,0,0,6.812,3.222,25.685,25.685,0,0,0,7.617,1.136h15.747a23.77,23.77,0,0,0,9.668-1.941,29.99,29.99,0,0,0,8.2-5.457c5.637-5.2,11.206-10.621,16.553-16.113a28.3,28.3,0,0,0,5.712-8.533,25.584,25.584,0,0,0,1.977-10.071V119.885a26.594,26.594,0,0,0-1.1-7.58,26.224,26.224,0,0,0-3.15-6.849,26.123,26.123,0,0,0-4.98-5.639,25.7,25.7,0,0,0-6.519-4.028v-7.47a30.947,30.947,0,0,0-2.49-12.3,32.1,32.1,0,0,0-6.775-10.071,32.1,32.1,0,0,0-10.071-6.775,30.944,30.944,0,0,0-12.3-2.49h-52.588a25.692,25.692,0,0,0-7.617,1.136,26.534,26.534,0,0,0-6.811,3.222,27.5,27.5,0,0,0-5.64,4.981,26.678,26.678,0,0,0-4.1,6.482Zm84.228,110.523h-15.747a16.064,16.064,0,0,1-4.871-.733,15.124,15.124,0,0,1-4.248-2.124,16.588,16.588,0,0,1-3.443-3.333,16.4,16.4,0,0,1-2.38-4.284h30.688a20.223,20.223,0,0,0,8.167-1.685,21.782,21.782,0,0,0,6.7-4.541,21.769,21.769,0,0,0,4.541-6.7,20.229,20.229,0,0,0,1.684-8.167V105.017a16.656,16.656,0,0,1,4.358,2.344,15.093,15.093,0,0,1,3.3,3.407,16.415,16.415,0,0,1,2.124,4.284,15.491,15.491,0,0,1,.769,4.834v31.567a15.915,15.915,0,0,1-1.245,6.043,15.6,15.6,0,0,1-3.37,5.163l-16.479,15.967a15.85,15.85,0,0,1-4.907,3.3A14.582,14.582,0,0,1-1855.727,183.02Zm-15.747-15.746h-26.367V117.249a2.557,2.557,0,0,0-.769-1.868,2.556,2.556,0,0,0-1.868-.769,2.535,2.535,0,0,0-1.831.805,2.535,2.535,0,0,0-.806,1.831v50.024h-10.474a15.3,15.3,0,0,1-6.152-1.245,16.226,16.226,0,0,1-5.017-3.406,16.235,16.235,0,0,1-3.406-5.017,15.3,15.3,0,0,1-1.246-6.152v-34.2a2.554,2.554,0,0,0-.769-1.868,2.556,2.556,0,0,0-1.867-.769,2.557,2.557,0,0,0-1.868.769,2.557,2.557,0,0,0-.769,1.868v34.2h-5.273a15.3,15.3,0,0,1-6.152-1.245,16.1,16.1,0,0,1-4.981-3.37,16.1,16.1,0,0,1-3.37-4.981,15.294,15.294,0,0,1-1.245-6.152V98.792a15.3,15.3,0,0,1,1.245-6.152,16.1,16.1,0,0,1,3.37-4.981,16.089,16.089,0,0,1,4.981-3.369,15.287,15.287,0,0,1,6.152-1.246h10.546a15.306,15.306,0,0,1,1.246-6.152,16.222,16.222,0,0,1,3.406-5.017,16.231,16.231,0,0,1,5.017-3.407,15.3,15.3,0,0,1,6.152-1.245H-1861a20.792,20.792,0,0,1,8.24,1.648,21.268,21.268,0,0,1,6.7,4.5,21.269,21.269,0,0,1,4.5,6.7,20.793,20.793,0,0,1,1.648,8.24v63.134a15.291,15.291,0,0,1-1.245,6.152,16.222,16.222,0,0,1-3.406,5.017,16.221,16.221,0,0,1-5.017,3.406,15.3,15.3,0,0,1-6.152,1.245H-1866.2V117.249a2.554,2.554,0,0,0-.769-1.868,2.556,2.556,0,0,0-1.867-.769,2.554,2.554,0,0,0-1.868.769,2.555,2.555,0,0,0-.77,1.868v50.024Z" transform="translate(1999 -18)" fill="#ffbe7b"/>
    </g>
  </g>
</svg>
