<svg xmlns="http://www.w3.org/2000/svg" xmlns:xlink="http://www.w3.org/1999/xlink" width="218" height="218" viewBox="0 0 218 218">
  <defs>
    <filter id="Subtraction_1" x="0" y="0" width="218" height="218" filterUnits="userSpaceOnUse">
      <feOffset dy="8" input="SourceAlpha"/>
      <feGaussianBlur stdDeviation="3" result="blur"/>
      <feFlood flood-opacity="0.161"/>
      <feComposite operator="in" in2="blur"/>
      <feComposite in="SourceGraphic"/>
    </filter>
  </defs>
  <g id="Scissors" transform="translate(-391 -717)">
    <g transform="matrix(1, 0, 0, 1, 391, 717)" filter="url(#Subtraction_1)">
      <path id="Subtraction_1-2" data-name="Subtraction 1" d="M100,200a99.532,99.532,0,0,1-55.911-17.078,100.292,100.292,0,0,1-36.23-44,99.868,99.868,0,0,1,9.22-94.835,100.292,100.292,0,0,1,44-36.23,99.868,99.868,0,0,1,94.835,9.22,100.292,100.292,0,0,1,36.23,44,99.868,99.868,0,0,1-9.22,94.835,100.292,100.292,0,0,1-44,36.23A99.374,99.374,0,0,1,100,200ZM70.843,84.519A20.782,20.782,0,0,0,62.6,86.167,20.977,20.977,0,0,0,51.4,97.373a20.782,20.782,0,0,0-1.648,8.239v28.931a49.27,49.27,0,0,0,1.795,13.294A50.806,50.806,0,0,0,56.6,159.811a49.959,49.959,0,0,0,17.907,17.908,50.83,50.83,0,0,0,11.975,5.053,50,50,0,0,0,26.55,0,50.969,50.969,0,0,0,11.938-5.053,50.372,50.372,0,0,0,17.981-17.981A50.969,50.969,0,0,0,148,147.8a48.872,48.872,0,0,0,1.795-13.257V39.767a17.625,17.625,0,0,0-1.464-7.141,18.7,18.7,0,0,0-3.992-5.823,19.45,19.45,0,0,0-5.859-3.955,18.145,18.145,0,0,0-14.282,0,19.457,19.457,0,0,0-5.86,3.955,18.693,18.693,0,0,0-3.992,5.823,17.625,17.625,0,0,0-1.464,7.141v1.9a31.183,31.183,0,0,0-2.747-5.969,20.3,20.3,0,0,0-3.919-4.761,17.1,17.1,0,0,0-5.2-3.149,18.953,18.953,0,0,0-13.77.329,18.571,18.571,0,0,0-5.859,3.991,19.208,19.208,0,0,0-3.955,5.933,18.137,18.137,0,0,0-1.465,7.214,16.105,16.105,0,0,0,.4,3.588,19.71,19.71,0,0,0,1.136,3.443l9.375,22.339A21.481,21.481,0,0,0,79.23,78.22a20.15,20.15,0,0,0-5.6,6.3Zm28.931,89.5a38.4,38.4,0,0,1-15.38-3.113A39.736,39.736,0,0,1,63.41,149.924,38.411,38.411,0,0,1,60.3,134.543V105.612a10.4,10.4,0,0,1,3.039-7.434,10.836,10.836,0,0,1,3.369-2.271,10.33,10.33,0,0,1,4.138-.842h5.2v16.041a12.365,12.365,0,0,0-4.211,1.648,13.315,13.315,0,0,0-3.333,2.93,13.24,13.24,0,0,0,.915,17.651,13.34,13.34,0,0,0,4.175,2.821,12.793,12.793,0,0,0,5.09,1.025H91.864v18.457a2.637,2.637,0,1,0,5.274,0V134.543a2.627,2.627,0,0,0-2.637-2.637H78.681a7.56,7.56,0,0,1-3.039-.622,8.206,8.206,0,0,1-4.248-4.248,7.73,7.73,0,0,1,0-6.08,7.747,7.747,0,0,1,1.721-2.49,8.545,8.545,0,0,1,2.527-1.685,7.56,7.56,0,0,1,3.039-.622H120.8a17.625,17.625,0,0,1,7.141,1.464,19.458,19.458,0,0,1,5.86,3.955,18.693,18.693,0,0,1,3.992,5.823,17.625,17.625,0,0,1,1.464,7.141,38.411,38.411,0,0,1-3.112,15.381,39.736,39.736,0,0,1-20.984,20.984A38.41,38.41,0,0,1,99.774,174.02Zm39.478-54.2,0,0a25.219,25.219,0,0,0-8.238-6.589,22.763,22.763,0,0,0-10.217-2.345H102.411V84.519L87.25,48.263a8.135,8.135,0,0,1-.659-3.222A7.563,7.563,0,0,1,87.214,42a7.933,7.933,0,0,1,4.174-4.174,7.548,7.548,0,0,1,3.04-.623,7.772,7.772,0,0,1,4.358,1.282,8.4,8.4,0,0,1,2.966,3.406c.245.54.652,1.526,1.209,2.93.564,1.424,1.217,3.125,1.94,5.054.71,1.893,1.489,3.989,2.381,6.408.877,2.382,1.752,4.748,2.6,7.032.856,2.306,1.719,4.647,2.563,6.958.853,2.331,1.6,4.319,2.271,6.079.683,1.779,1.274,3.282,1.758,4.468a9.128,9.128,0,0,0,1.025,2.087,6.664,6.664,0,0,0,1.173,1.172,2.64,2.64,0,0,0,1.611.44,3.127,3.127,0,0,0,3.149-3.15v-41.6a7.56,7.56,0,0,1,.623-3.039,7.759,7.759,0,0,1,1.721-2.49,8.51,8.51,0,0,1,2.527-1.685,7.74,7.74,0,0,1,6.079,0,8.509,8.509,0,0,1,2.526,1.685,7.748,7.748,0,0,1,1.722,2.49,7.56,7.56,0,0,1,.622,3.039v80.054Zm-42.114-8.936H81.318V95.065a10.072,10.072,0,0,1,.842-4.1,10.822,10.822,0,0,1,5.6-5.6,10.072,10.072,0,0,1,4.1-.842h5.274v26.365Z" transform="translate(9 1)" fill="#ffc83d"/>
    </g>
  </g>
</svg>
